<svg xmlns="http://www.w3.org/2000/svg" version="1.1" xmlns:xlink="http://www.w3.org/1999/xlink" xmlns:svgjs="http://svgjs.dev/svgjs" width="1440" height="560" preserveAspectRatio="none" viewBox="0 0 1440 560"><g mask="url(&quot;#SvgjsMask1000&quot;)" fill="none"><rect width="1440" height="560" x="0" y="0" fill="#0e2a47"></rect><path d="M693.99 543.14L746 543.14L746 597.59L693.99 597.59z" fill="#037b0b"></path><path d="M456.73 387.08 a45.05 45.05 0 1 0 90.1 0 a45.05 45.05 0 1 0 -90.1 0z" fill="#d3b714"></path><path d="M495.33 40.51L518.66 40.51L518.66 78.08L495.33 78.08z" stroke="#e73635"></path><path d="M1224.34 411.34 a10.97 10.97 0 1 0 21.94 0 a10.97 10.97 0 1 0 -21.94 0z" stroke="#d3b714"></path><path d="M432.26 178.01 a41.35 41.35 0 1 0 82.7 0 a41.35 41.35 0 1 0 -82.7 0z" fill="#d3b714"></path><path d="M1129.24 542.83L1177.08 542.83L1177.08 556.11L1129.24 556.11z" fill="#037b0b"></path><path d="M843.15 78.27L882.42 78.27L882.42 80.84L843.15 80.84z" fill="#d3b714"></path><path d="M1326.99 577.27a27.17 27.17 0 1 0-36.19-40.53z" stroke="#d3b714"></path><path d="M1162.7 52.7L1173.79 52.7L1173.79 97.78L1162.7 97.78z" stroke="#d3b714"></path><path d="M105.66 250.51L116.76 250.51L116.76 261.61L105.66 261.61z" fill="#e73635"></path><path d="M1218.28 397.8L1270.53 397.8L1270.53 450.05L1218.28 450.05z" fill="#e73635"></path><path d="M606.21 527.36 a46.68 46.68 0 1 0 93.36 0 a46.68 46.68 0 1 0 -93.36 0z" fill="#d3b714"></path><path d="M645.81 266.57L670.93 266.57L670.93 294.82L645.81 294.82z" stroke="#037b0b"></path><path d="M1327.43 275.57a43.17 43.17 0 1 0 75.7-41.52z" stroke="#037b0b"></path><path d="M479.18 269.24L497.41 269.24L497.41 272.4L479.18 272.4z" fill="#d3b714"></path><path d="M242.08 418.55L243.49 418.55L243.49 419.96L242.08 419.96z" fill="#d3b714"></path><path d="M874.14 352.63L909.99 352.63L909.99 388.48L874.14 388.48z" fill="#037b0b"></path><path d="M421.35 497.38L424.6 497.38L424.6 529.54L421.35 529.54z" fill="#d3b714"></path><path d="M394.69 358.41L411.63 358.41L411.63 375.35L394.69 375.35z" stroke="#d3b714"></path><path d="M1089.1 195.43L1092.11 195.43L1092.11 250.3L1089.1 250.3z" fill="#d3b714"></path><path d="M1325.84 59.2a13.64 13.64 0 1 0-15.96 22.12z" fill="#d3b714"></path><path d="M455.75 363.9L473.85 363.9L473.85 382L455.75 382z" stroke="#e73635"></path><path d="M760.17 400.21a3.85 3.85 0 1 0-5.8-5.06z" fill="#037b0b"></path><path d="M907.12 445.15a29.05 29.05 0 1 0-38.9 43.15z" fill="#d3b714"></path><path d="M545.72 186.25L572.26 186.25L572.26 193.67L545.72 193.67z" fill="#037b0b"></path><path d="M181.58 52.07L198.53 52.07L198.53 69.02L181.58 69.02z" stroke="#e73635"></path><path d="M483.82 42.47 a18.99 18.99 0 1 0 37.98 0 a18.99 18.99 0 1 0 -37.98 0z" stroke="#037b0b"></path><path d="M1223.26 304.97a33.08 33.08 0 1 0 16.05-64.18z" stroke="#d3b714"></path><path d="M1425.7 549.65a0.52 0.52 0 1 0-0.89 0.52z" fill="#e73635"></path><path d="M1034.6 63.68 a20.89 20.89 0 1 0 41.78 0 a20.89 20.89 0 1 0 -41.78 0z" fill="#e73635"></path><path d="M1191.89 134.15a34.07 34.07 0 1 0 32.57-59.85z" fill="#e73635"></path><path d="M142.49 512.47a15.32 15.32 0 1 0-30.55-2.34z" stroke="#037b0b"></path><path d="M321.74 352.9a23.12 23.12 0 1 0 44.64-12.06z" stroke="#d3b714"></path></g><defs><mask id="SvgjsMask1000"><rect width="1440" height="560" fill="#ffffff"></rect></mask></defs></svg>